<?xml version="1.0" encoding="utf-8"?>
<!-- Generator: Adobe Illustrator 26.0.3, SVG Export Plug-In . SVG Version: 6.00 Build 0)  -->
<svg version="1.1" id="Layer_1" xmlns="http://www.w3.org/2000/svg" xmlns:xlink="http://www.w3.org/1999/xlink" x="0px" y="0px"
	 viewBox="0 0 700 700" style="enable-background:new 0 0 700 700;" xml:space="preserve">
<g>
	<path d="M516.2,108.9c-78.7,0-94.3,110.8-94.3,176.9c0,2.7,0,5.1,0,7.8c46.7,3.3,93.1,6.6,139.6,6.4
		C580.8,233.8,588,108.9,516.2,108.9z"/>
	<path d="M682.8,303.3c-84.2,8.6-166.5,5.3-260.7-1.9c5.1,127.5,73.8,183.4,160.9,183.4c33.3,0,78.1-9.2,112.8-33.6
		c0.5-4.3,0.9-8.5,1.3-12.6C700.5,404.4,696.3,355.8,682.8,303.3z"/>
	<path d="M484.2,598.2c-127.2,0-235.3-90.9-235.3-240.2c0-23.4,2.7-45.9,7.6-67c-20.3-2.1-24.7-3.5-37.4-3.5
		c-23,0-55.9,7.4-55.9,45.9c0,30.2,21,49.4,43,58.6c-2.7,57.8-46.7,84.3-92.5,84.3c-47.7,0-94.5-33.9-94.5-92.5
		c0-84.3,88.2-109,163.2-109c37,0,55.1,5.6,76.1,8.6c29.6-109.6,125-181.8,258-181.8c24.2,0,46.7,1.9,67.2,5.6
		c-27.8-31.8-61.2-59.2-100.8-78.8c0,0-162.9-65.4-319.7,7.9C6,109.6,0,371.2,2,420.8c2,49.6,15.9,277.5,339.6,277.5
		c263.3,0,326.9-104.9,346.8-198.5C642,558,574,598.2,484.2,598.2z"/>
</g>
</svg>
