<svg viewBox="0 0 36 36" xmlns="http://www.w3.org/2000/svg"><path d="M32.9 9.5c-1.9 0-3.7-.6-5.2-1.7-1.7-1.2-2.8-3.1-3.3-5.2-.1-.5-.2-1.1-.2-1.6h-5.6v23.5c0 2.2-1.4 4.1-3.5 4.8-.6.2-1.2.3-1.9.2-.8 0-1.6-.3-2.3-.7-1.4-.9-2.4-2.4-2.5-4.2 0-2.8 2.2-5.1 5-5.1.6 0 1.1.1 1.6.3v-5.6c-.2-.2-.7-.2-1.3-.2-3.1 0-5.9 1.3-8 3.6-1.6 1.7-2.5 4-2.6 6.3-.2 3.1.9 6 3.1 8.1.3.3.7.6 1 .9C9 34.2 11.3 35 13.7 35c.5 0 1.1 0 1.6-.1 2.2-.3 4.3-1.4 5.9-3 2-2 3.1-4.6 3.1-7.4V12.1c1 .7 2 1.3 3.1 1.8 1.7.7 3.6 1.1 5.5 1.1v-4z"/></svg>