<svg id="Layer_1" xmlns="http://www.w3.org/2000/svg" viewBox="0 0 36 36"><style>.st0{fill:#231f20}</style><path class="st0" d="M29.5 7.3h-2.9V4.8c0-2.1-1.7-3.8-3.8-3.8H5.6C3.5 1 1.8 2.7 1.8 4.8v20.1c0 2.1 1.7 3.8 3.8 3.8h3.8v1.6c0 2.6 2.1 4.7 4.7 4.7h15.4c2.6 0 4.7-2.1 4.7-4.7V12c0-2.6-2.1-4.7-4.7-4.7zM4.6 24.9V4.8c0-.6.5-1 1-1h17.2c.6 0 1 .5 1 1v20.1c0 .6-.5 1-1 1H5.6c-.6 0-1-.4-1-1zm26.8 5.4c0 1.1-.9 1.9-1.9 1.9H14.1c-1.1 0-1.9-.9-1.9-1.9v-1.6h10.7c2.1 0 3.8-1.7 3.8-3.8V10.1h2.9c1.1 0 1.9.9 1.9 1.9v18.3z"/></svg>