<svg viewBox="0 0 36 36" xmlns="http://www.w3.org/2000/svg"><path d="M30.92 14.58h-1.17v-1.83C29.75 6.27 24.48 1 18 1S6.25 6.27 6.25 12.75v1.83H5.08C2.83 14.58 1 16.41 1 18.66v12.27C1 33.17 2.83 35 5.08 35h25.84c2.25 0 4.08-1.83 4.08-4.08V18.66c0-2.25-1.83-4.08-4.08-4.08zM8.87 12.75c0-5.03 4.1-9.13 9.13-9.13s9.13 4.1 9.13 9.13v1.83H8.87zm23.51 18.17c0 .81-.66 1.46-1.46 1.46H5.08c-.81 0-1.46-.66-1.46-1.46V18.66c0-.81.66-1.46 1.46-1.46h25.84c.81 0 1.46.66 1.46 1.46z"/><path d="M11.06 23.43c-.09-.07-.18-.1-.27-.16a1.68 1.68 0 0 0-1.79.36 1.677 1.677 0 0 0-.44 1.47c.03.1.05.21.09.31.05.09.09.18.16.27.05.09.13.17.2.25.31.31.73.48 1.16.48s.85-.17 1.15-.48c.08-.08.14-.16.21-.25.05-.09.1-.18.14-.27.04-.1.08-.21.09-.31.03-.1.04-.21.04-.31 0-.43-.18-.85-.48-1.16-.09-.07-.17-.15-.26-.2zm5.23 0c-.09-.07-.18-.1-.27-.16-.1-.04-.21-.07-.31-.09-.52-.1-1.09.07-1.48.45a1.677 1.677 0 0 0-.44 1.47c.03.1.05.21.09.31.05.09.09.18.16.27.05.09.13.17.2.25.31.31.73.48 1.16.48s.85-.17 1.15-.48c.3-.3.48-.72.48-1.15s-.18-.85-.48-1.16c-.09-.06-.17-.14-.26-.19zm4-.25c-.1.03-.2.05-.3.09-.1.05-.2.09-.29.16-.08.05-.17.13-.25.2-.3.31-.47.73-.47 1.16s.17.85.47 1.15c.08.08.17.14.25.21.09.05.18.1.29.14.1.04.2.08.3.1.12.01.22.03.33.03.43 0 .85-.17 1.15-.48.08-.08.14-.16.21-.25.05-.09.1-.18.14-.27.04-.1.08-.21.09-.31.03-.1.04-.21.04-.31a1.65 1.65 0 0 0-1.96-1.62zm6.46.25c-.09-.07-.18-.1-.27-.16-.1-.04-.21-.07-.31-.09-.52-.1-1.09.07-1.48.45a1.677 1.677 0 0 0-.44 1.47c.03.1.05.21.09.31.05.09.09.18.16.27.05.09.13.17.2.25a1.643 1.643 0 0 0 1.47.45c.1-.03.21-.07.31-.1.09-.04.18-.09.27-.14.09-.07.17-.13.25-.21s.14-.16.21-.25c.05-.09.1-.18.14-.27.04-.1.08-.21.09-.31.03-.1.04-.21.04-.31 0-.43-.17-.85-.48-1.16-.08-.07-.16-.15-.25-.2z"/></svg>