<svg viewBox="0 0 36 36" xmlns="http://www.w3.org/2000/svg"><path d="M18 4.1c4.5 0 5.1 0 6.9.1 1.7.1 2.6.4 3.2.6.8.3 1.4.7 2 1.3s1 1.2 1.3 2c.2.6.5 1.5.6 3.2.1 1.8.1 2.3.1 6.9 0 4.5 0 5.1-.1 6.9-.1 1.7-.4 2.6-.6 3.2-.3.8-.7 1.4-1.3 2s-1.2 1-2 1.3c-.6.2-1.5.5-3.2.6-1.8.1-2.3.1-6.9.1-4.5 0-5.1 0-6.9-.1-1.7-.1-2.6-.4-3.2-.6-.8-.3-1.4-.7-2-1.3s-1-1.2-1.3-2c-.2-.6-.5-1.5-.6-3.2-.1-1.8-.1-2.3-.1-6.9 0-4.5 0-5.1.1-6.9.2-1.8.5-2.7.7-3.3.4-.8.7-1.4 1.3-2s1.2-1 2-1.3c.6-.2 1.5-.5 3.2-.6zM18 1c-4.6 0-5.2 0-7 .1s-3 .4-4.1.8-2.1 1-3 2c-.9.9-1.5 1.9-2 3-.4 1-.7 2.3-.8 4.1S1 13.4 1 18s0 5.2.1 7 .4 3 .8 4.1 1 2.1 2 3c.9.9 1.9 1.5 3 2 1.1.4 2.3.7 4.1.8s2.4.1 7 .1 5.2 0 7-.1 3-.4 4.1-.8 2.1-1 3-2c.9-.9 1.5-1.9 2-3 .4-1.1.7-2.3.8-4.1s.1-2.4.1-7 0-5.2-.1-7-.4-3-.8-4.1-1-2.1-2-3c-.9-.9-1.9-1.5-3-2-1.1-.4-2.3-.7-4.1-.8S22.6 1 18 1"/><path d="M18 9.3c-4.8 0-8.7 3.9-8.7 8.7s3.9 8.7 8.7 8.7 8.7-3.9 8.7-8.7-3.9-8.7-8.7-8.7m0 14.4c-3.1 0-5.7-2.5-5.7-5.7 0-3.1 2.5-5.7 5.7-5.7 3.1 0 5.7 2.5 5.7 5.7 0 3.1-2.6 5.7-5.7 5.7M29.1 8.9c0 1.1-.9 2-2 2s-2-.9-2-2 .9-2 2-2 2 .9 2 2"/></svg>