<svg viewBox="0 0 36 36" xmlns="http://www.w3.org/2000/svg"><path d="M24.8 2.42a1.32 1.32 0 1 0-1.06 2.42 14.364 14.364 0 0 1 0 26.32 1.32 1.32 0 0 0 .53 2.53c.18 0 .36-.04.53-.11C31 30.88 35 24.76 35 18S31 5.12 24.8 2.42z"/><path d="M23.39 24.03a1.319 1.319 0 0 0-.11 1.86 1.325 1.325 0 0 0 1.87.1c2.27-2.03 3.58-4.95 3.58-8s-1.3-5.96-3.58-8c-.26-.24-.59-.35-.96-.34-.35.02-.68.17-.91.44-.49.54-.44 1.38.1 1.87 1.71 1.53 2.69 3.73 2.69 6.02s-.97 4.51-2.68 6.05zM18.6 4.8c-.45-.23-.98-.18-1.38.11L9.73 10.4h-7.4C1.59 10.41 1 11 1 11.73v12.54c0 .73.59 1.32 1.32 1.32h7.4l7.49 5.49c.23.17.5.26.78.26a1.321 1.321 0 0 0 1.33-1.32V5.98c0-.5-.28-.95-.72-1.18zm-1.92 3.79v18.82l-5.73-4.2c-.23-.17-.5-.26-.78-.26H3.65v-9.9h6.52c.28 0 .55-.09.78-.26z"/></svg>