<svg viewBox="0 0 36 36" xmlns="http://www.w3.org/2000/svg"><path d="M26.48 12.29V9.48C26.48 4.8 22.68 1 18 1S9.52 4.8 9.52 9.48v2.81H1v17.49C1 32.66 3.34 35 6.22 35h23.56c2.88 0 5.22-2.34 5.22-5.22V12.29zM12.13 9.48c0-3.23 2.63-5.87 5.87-5.87s5.87 2.63 5.87 5.87v2.81H12.13zm20.25 20.3c0 1.44-1.17 2.6-2.6 2.6H6.22c-1.44 0-2.6-1.17-2.6-2.6V14.9h5.9v2.09c-.53.4-.87 1.02-.87 1.73 0 1.2.98 2.18 2.18 2.18s2.18-.98 2.18-2.18c0-.71-.35-1.33-.87-1.73V14.9h11.73v2.09c-.53.4-.87 1.02-.87 1.73 0 1.2.98 2.18 2.18 2.18s2.18-.98 2.18-2.18c0-.71-.35-1.33-.87-1.73V14.9h5.9v14.88z"/></svg>