<svg viewBox="0 0 36 36" xmlns="http://www.w3.org/2000/svg"><path d="M29.52 24.34c-1.5 0-2.84.62-3.81 1.62l-14.12-6.52c.13-.46.22-.94.22-1.44s-.09-.98-.22-1.44l14.12-6.52c.97 1 2.32 1.62 3.81 1.62 2.94 0 5.33-2.39 5.33-5.33S32.46 1 29.52 1s-5.33 2.39-5.33 5.33c0 .5.09.98.22 1.44l-14.12 6.52c-.97-1-2.32-1.62-3.81-1.62-2.94 0-5.33 2.39-5.33 5.33s2.39 5.33 5.33 5.33c1.5 0 2.84-.62 3.81-1.62l14.12 6.52c-.13.46-.22.94-.22 1.44 0 2.94 2.39 5.33 5.33 5.33s5.33-2.39 5.33-5.33-2.39-5.33-5.33-5.33z"/></svg>