<svg viewBox="0 0 36 36" xmlns="http://www.w3.org/2000/svg"><path d="M33.75 1.42c-1.21-.82-2.68-.23-3.57.12L3.13 15.51c-1.2.48-2.01 1.53-2.12 2.73-.1 1.16.45 2.23 1.47 2.88l10.48 3.52 13.17 8.3c.58.36 1.25.55 1.93.55.54 0 1.09-.12 1.6-.35 1.05-.49 1.77-1.44 1.91-2.52l3.41-25.79.02-.17c0-.59.01-2.39-1.25-3.24zm-4.77 28.85c-.04.28-.31.44-.43.49-.27.13-.68.18-1.03-.04L15.59 23.2l11.78-12.05a1.3 1.3 0 0 0-.02-1.85c-.52-.5-1.35-.49-1.85.02L13.14 21.97l-9.36-3.14a.408.408 0 0 1-.16-.36c.02-.22.2-.42.6-.59l27-13.94c.6-.24.9-.31 1.05-.32.04.13.11.41.11.95zm-16.14 3.75c0 .7.31.98.67.98.24 0 .51-.12.72-.32l4.46-4.17-5.86-3.5v7.01z"/></svg>