<svg viewBox="0 0 92 36" xmlns="http://www.w3.org/2000/svg"><g fill="#020203"><path d="M34.54 22.48V4l-7.72 1.86.06.22c2.38-.53 2.5.44 2.5 2.3v14.09c0 2.66-.25 3.22-2.22 3.22v.22h9.6v-.21c-1.98 0-2.22-.56-2.22-3.22zm10.04 0v-8.13l.06-3.19-7.77 1.86.06.22c2.38-.53 2.5.44 2.5 2.3v6.94c0 2.66-.25 3.22-2.22 3.22v.22h9.6v-.22c-1.98 0-2.23-.56-2.23-3.22zM42 10.1c1.65 0 2.98-1.31 3.05-2.94.07-1.62-1.24-3.06-2.87-3.15-1.74-.1-3.23 1.29-3.23 3.02 0 1.69 1.38 3.07 3.05 3.07zm11.29 15.6l8.96-14.37h-9.3c-1.02-.02-3.01.21-4.31 1.15-.71.52-1.21 1.26-1.23 2.29-.01.78.29 1.37.8 1.74.07.06.16.11.24.15.35.19.78.3 1.24.3 1.1.02 2.08-.62 2.18-2.01-.51-.23-.84-.96-.83-1.52.01-.39.09-.73.22-1.02.28-.57.83-.91 1.67-.9 0 0 3.06.02 3.24.02l-.01.01-8.99 14.38H61.1l1.19-7.21h-.22c-.85 4.57-2.54 6.99-8.78 6.99zm30.6-.21c-1.39 0-2.79.81-2.87 2.63.73.22 1.56.9 1.56 1.92 0 1.14-.78 1.7-1.73 1.7-2.48 0-2.59-2.76-2.59-6.67v-9.59c0-3.24-3.52-4.32-7.42-4.32-1.82 0-6.28.7-6.28 4.04 0 1.59 1.14 2.48 2.65 2.48 1.26 0 2.37-.75 2.46-2.35-.58-.25-.98-1.09-.98-1.73 0-1.37.7-2.23 2.15-2.23 1.92 0 2.23 1.95 2.23 3.71v1.67c-3.1 2.18-9.43 1.39-9.43 5.83 0 2.4 1.67 3.68 4.3 3.68 2.23 0 4.41-1.17 5.19-3.17v.65c0 5.44 4.13 8.26 7.73 8.26 2.65 0 5.86-1.03 5.86-3.71-.01-1.88-1.35-2.8-2.83-2.8zm-10.83-3.32c0 1.03-.64 2.07-1.82 2.07-1.45 0-1.92-1.42-1.92-2.76 0-3.12 1.79-3.15 3.74-4.44z"/><path d="M22.36 22.75c-2.64 0-4.72-1.69-4.87-5.55 3.35.26 6.2.35 9.23-.11.89-3.52-1.64-5.94-6.38-5.94-4.03 0-6.91 2.18-7.81 5.5-.63-.09-1.18-.26-2.3-.26-2.27 0-4.94.75-4.94 3.3 0 1.77 1.42 2.8 2.86 2.8 1.39 0 2.72-.8 2.8-2.55-.67-.28-1.3-.86-1.3-1.77 0-1.16 1-1.39 1.69-1.39.39 0 .52.04 1.13.11-.15.64-.23 1.32-.23 2.03 0 4.52 3.27 7.27 7.12 7.27s6.38-2.44 7.6-5.41l-.17-.08c-.98 1.52-3.04 2.05-4.43 2.05zm-4.87-6.02c0-2 .47-5.35 2.86-5.35 2.17 0 1.95 3.78 1.37 5.78-1.41.01-2.81-.09-4.22-.19-.01-.08-.01-.16-.01-.24z"/></g></svg>