<?xml version="1.0" encoding="utf-8"?>
<!-- Generator: Adobe Illustrator 26.2.0, SVG Export Plug-In . SVG Version: 6.00 Build 0)  -->
<svg version="1.1" id="Layer_1" xmlns="http://www.w3.org/2000/svg" xmlns:xlink="http://www.w3.org/1999/xlink" x="0px" y="0px"
	 viewBox="0 0 128 128" style="enable-background:new 0 0 128 128;" xml:space="preserve">
<g>
	<path d="M29.5,22.4h57.3c1.7,0,3.3,0.7,4.5,1.9c1.2,1.2,1.9,2.8,1.9,4.5c0,0.5,0.2,0.9,0.5,1.2c0.3,0.3,0.8,0.5,1.2,0.5
		c0.5,0,0.9-0.2,1.2-0.5c0.3-0.3,0.5-0.8,0.5-1.2c0-2.6-1.1-5.2-2.9-7c-1.9-1.9-4.4-2.9-7-2.9H29.5c-0.5,0-0.9,0.2-1.2,0.5
		c-0.3,0.3-0.5,0.8-0.5,1.2c0,0.5,0.2,0.9,0.5,1.2C28.5,22.2,29,22.4,29.5,22.4z"/>
	<path d="M21,22.4h0.4c0.5,0,0.9-0.2,1.2-0.5c0.3-0.3,0.5-0.8,0.5-1.2c0-0.5-0.2-0.9-0.5-1.2c-0.3-0.3-0.8-0.5-1.2-0.5H21
		c-0.5,0-0.9,0.2-1.2,0.5c-0.3,0.3-0.5,0.8-0.5,1.2c0,0.5,0.2,0.9,0.5,1.2C20.1,22.2,20.5,22.4,21,22.4z"/>
	<path d="M6.9,78.7c0.5,0,0.9-0.2,1.2-0.5c0.3-0.3,0.5-0.8,0.5-1.2V28.8c0-1.7,0.7-3.3,1.9-4.5c1.2-1.2,2.8-1.9,4.5-1.9
		c0.5,0,0.9-0.2,1.2-0.5c0.3-0.3,0.5-0.8,0.5-1.2c0-0.5-0.2-0.9-0.5-1.2c-0.3-0.3-0.8-0.5-1.2-0.5c-2.6,0-5.2,1.1-7,2.9
		c-1.9,1.9-2.9,4.4-2.9,7v48.2c0,0.5,0.2,0.9,0.5,1.2C6,78.5,6.4,78.7,6.9,78.7z"/>
	<path d="M31.2,54c-0.3,0.4-0.3,0.9-0.2,1.3c0.1,0.5,0.4,0.9,0.8,1.1c0.3,0.2,0.6,0.3,1,0.3c0.3,0,0.6-0.1,0.8-0.2
		c0.3-0.1,0.5-0.3,0.6-0.6c1.1-1.8,5.2-3,7.4-3.4c0.3-0.1,0.6-0.2,0.8-0.4c0.2-0.2,0.4-0.5,0.5-0.8c0.1-0.3,0.1-0.6,0.1-0.9
		c-0.1-0.3-0.2-0.6-0.4-0.8c-4-4.6-12-4.4-12.4-4.4c-0.5,0-0.9,0.2-1.2,0.5c-0.3,0.3-0.5,0.8-0.5,1.2s0.2,0.9,0.5,1.2
		c0.3,0.3,0.8,0.5,1.2,0.5c2.3,0,4.7,0.4,6.8,1.3C34.8,50.7,32.7,52.1,31.2,54z"/>
	<path d="M72.2,48.7c0.2-0.1,0.4-0.2,0.6-0.4c0.2-0.2,0.3-0.4,0.4-0.6c0.1-0.2,0.1-0.5,0.1-0.7c0-0.5-0.2-0.9-0.5-1.2
		c-0.3-0.3-0.8-0.5-1.2-0.5c-0.3,0-8.3-0.2-12.4,4.4c-0.2,0.2-0.3,0.5-0.4,0.8c-0.1,0.3,0,0.6,0.1,0.9c0.1,0.3,0.3,0.6,0.5,0.8
		c0.2,0.2,0.5,0.3,0.8,0.4c1.5,0.2,6.1,1.4,7.4,3.4c0.2,0.2,0.4,0.5,0.6,0.6c0.3,0.1,0.5,0.2,0.8,0.2c0.3,0,0.7-0.1,1-0.3
		c0.4-0.3,0.7-0.7,0.8-1.1c0.1-0.5,0-0.9-0.2-1.3c-1.5-1.9-3.6-3.3-6-4c2.2-0.9,4.5-1.3,6.8-1.3C71.7,48.8,72,48.8,72.2,48.7z"/>
	<path d="M34.8,69.5c0.4,0.2,0.9,0.3,1.3,0.2c0.5-0.1,1-0.4,1.4-0.7c0.9-0.5,1.8-1,2.8-1.3c0.5,0.3,0.9,0.6,1.3,1
		c0.9,1,2.2,1.7,3.5,1.9h0.2c1.4-0.2,2.7-0.8,3.7-1.9c0.6-0.5,1.3-1,2-1.3c0.7,0.3,1.4,0.8,2,1.3c1,1,2.3,1.7,3.7,1.9h0.2
		c1.4-0.2,2.6-0.9,3.5-1.9c0.4-0.4,0.7-0.7,1.2-1c1,0.3,2,0.7,2.8,1.3c0.4,0.3,0.9,0.5,1.4,0.7c0.2,0,0.5,0,0.7,0
		c0.2,0,0.4-0.1,0.6-0.3c0.2-0.1,0.4-0.3,0.5-0.5c0.1-0.2,0.2-0.4,0.3-0.6c0.1-0.4,0-0.9-0.2-1.2c-0.2-0.4-0.6-0.7-1-0.8l-0.6-0.3
		c-1.4-0.9-2.9-1.5-4.6-1.8c-1.4,0.1-2.6,0.8-3.5,1.8c-0.4,0.4-1.1,1-1.2,1c-0.6-0.3-1.1-0.7-1.6-1.1c-1.1-1.2-2.6-1.9-4.2-2.1
		c-1.6,0.2-3.1,1-4.2,2.1c-0.5,0.4-1.3,1-1.5,1.1c-0.5-0.3-1-0.6-1.4-1c-0.9-1-2.2-1.6-3.5-1.8c-1.6,0.2-3.2,0.8-4.6,1.8l-0.6,0.3
		c-0.4,0.1-0.8,0.4-1,0.8C34,67.6,33.9,68,34,68.5C34.1,68.9,34.4,69.3,34.8,69.5z"/>
	<path d="M125.5,36.5c-1.6-1.6-3.8-2.5-6-2.5H90.9c-2.3,0-4.4,0.9-6,2.5c-1.6,1.6-2.5,3.8-2.5,6v55.6H5.9c-0.4,0-0.8,0-1.2-0.1
		c-0.4-0.1-0.7-0.4-1-0.7c-0.1-0.3-0.2-0.6-0.2-1c0-0.3,0.1-0.7,0.3-0.9L8,86.9h66.3c0.5,0,0.9-0.2,1.2-0.5c0.3-0.3,0.5-0.8,0.5-1.2
		c0-0.5-0.2-0.9-0.5-1.2c-0.3-0.3-0.8-0.5-1.2-0.5H6.9c-0.3,0-0.7,0.1-0.9,0.3c-0.3,0.2-0.5,0.4-0.6,0.7l-4.6,9.5
		C0.2,94.7,0,95.6,0,96.6c0,0.9,0.2,1.8,0.7,2.6c0.6,0.8,1.4,1.5,2.3,1.9c0.9,0.4,1.9,0.6,2.9,0.6h76.6c0.3,2.1,1.2,4,2.8,5.3
		c1.6,1.4,3.6,2.1,5.6,2.2h28.6c2.3,0,4.4-0.9,6-2.5c1.6-1.6,2.5-3.8,2.5-6V42.6C128,40.3,127.1,38.1,125.5,36.5z M124.5,100.7
		c0,1.3-0.5,2.6-1.5,3.5c-0.9,0.9-2.2,1.5-3.5,1.5H90.9c-0.7,0-1.3-0.1-1.9-0.4c-0.6-0.3-1.2-0.6-1.6-1.1c-0.5-0.5-0.8-1-1.1-1.6
		c-0.2-0.6-0.4-1.3-0.4-1.9V42.6c0-1.3,0.5-2.6,1.5-3.5s2.2-1.5,3.5-1.5h8.3v0.7c0,0.5,0.2,0.9,0.5,1.2c0.3,0.3,0.8,0.5,1.2,0.5h8.5
		c0.5,0,0.9-0.2,1.2-0.5c0.3-0.3,0.5-0.8,0.5-1.2v-0.7h8.3c1.3,0,2.6,0.5,3.5,1.5s1.5,2.2,1.5,3.5L124.5,100.7z"/>
	<path d="M100.8,67c0.3-0.3,0.5-0.8,0.5-1.2c0-0.5-0.2-0.9-0.5-1.2c-0.3-0.3-0.8-0.5-1.2-0.5h-5.6c-0.5,0-0.9,0.2-1.2,0.5
		c-0.3,0.3-0.5,0.8-0.5,1.2c0,0.5,0.2,0.9,0.5,1.2s0.8,0.5,1.2,0.5h5.6C100,67.5,100.5,67.3,100.8,67z"/>
	<path d="M116.5,64h-5.6c-0.5,0-0.9,0.2-1.2,0.5c-0.3,0.3-0.5,0.8-0.5,1.2c0,0.5,0.2,0.9,0.5,1.2s0.8,0.5,1.2,0.5h5.6
		c0.5,0,0.9-0.2,1.2-0.5s0.5-0.8,0.5-1.2c0-0.5-0.2-0.9-0.5-1.2C117.4,64.2,117,64,116.5,64z"/>
	<path d="M111.7,80.3c-1.9-1.4-4.2-2.1-6.5-2c-2.3-0.1-4.6,0.6-6.5,2c-0.4,0.3-0.6,0.7-0.6,1.2c0,0.5,0.1,0.9,0.4,1.3
		c0.1,0.2,0.3,0.3,0.5,0.4c0.2,0.1,0.4,0.2,0.7,0.2s0.5,0,0.7-0.1c0.2-0.1,0.4-0.2,0.6-0.3c1.3-0.8,2.8-1.2,4.3-1.2
		c1.5-0.1,3,0.3,4.3,1.2c0.3,0.3,0.7,0.4,1.1,0.4c0.3,0,0.5-0.1,0.8-0.2c0.2-0.1,0.4-0.3,0.6-0.5c0.3-0.4,0.4-0.8,0.4-1.3
		C112.3,81,112.1,80.6,111.7,80.3z"/>
	<path d="M43.1,92.4c-0.5,0-0.9,0.2-1.2,0.5c-0.3,0.3-0.5,0.8-0.5,1.2s0.2,0.9,0.5,1.2c0.3,0.3,0.8,0.5,1.2,0.5h15.6
		c0.5,0,0.9-0.2,1.2-0.5c0.3-0.3,0.5-0.8,0.5-1.2s-0.2-0.9-0.5-1.2c-0.3-0.3-0.8-0.5-1.2-0.5H43.1z"/>
</g>
</svg>
