<?xml version="1.0" encoding="utf-8"?>
<!-- Generator: Adobe Illustrator 26.0.3, SVG Export Plug-In . SVG Version: 6.00 Build 0)  -->
<svg version="1.1" id="Layer_1" xmlns="http://www.w3.org/2000/svg" xmlns:xlink="http://www.w3.org/1999/xlink" x="0px" y="0px"
	 viewBox="0 0 36 36" style="enable-background:new 0 0 36 36;" xml:space="preserve">
<g>
	<path d="M31.8,2.5c1,0,1.7,0.8,1.7,1.7v27.5c0,1-0.8,1.7-1.7,1.7H4.2c-1,0-1.7-0.8-1.7-1.7V4.2c0-1,0.8-1.7,1.7-1.7H31.8 M31.8,1
		H4.2C2.5,1,1,2.5,1,4.2v27.5C1,33.5,2.5,35,4.2,35h27.5c1.8,0,3.2-1.5,3.2-3.2V4.2C35,2.5,33.5,1,31.8,1L31.8,1z"/>
</g>
</svg>
