<svg enable-background="new 0 0 36 36" viewBox="0 0 36 36" xmlns="http://www.w3.org/2000/svg"><path d="m26.48 12.29v-2.81c0-4.68-3.8-8.48-8.48-8.48s-8.48 3.8-8.48 8.48v2.81h-8.52v17.49c0 2.88 2.34 5.22 5.22 5.22h23.56c2.88 0 5.22-2.34 5.22-5.22v-17.49zm-14.35-2.81c0-3.23 2.63-5.87 5.87-5.87s5.87 2.63 5.87 5.87v2.81h-11.74zm20.25 20.3c0 1.44-1.17 2.6-2.6 2.6h-23.56c-1.44 0-2.6-1.17-2.6-2.6v-14.88h5.9v2.09c-.53.4-.87 1.02-.87 1.73 0 1.2.98 2.18 2.18 2.18s2.18-.98 2.18-2.18c0-.71-.35-1.33-.87-1.73v-2.09h11.73v2.09c-.53.4-.87 1.02-.87 1.73 0 1.2.98 2.18 2.18 2.18s2.18-.98 2.18-2.18c0-.71-.35-1.33-.87-1.73v-2.09h5.9v14.88z"/></svg>