<svg enable-background="new 0 0 36 36" viewBox="0 0 36 36" xmlns="http://www.w3.org/2000/svg"><path d="m29.99 2.31h-23.98c-2.76 0-5.01 2.25-5.01 5.01v21.36c0 2.76 2.25 5.01 5.01 5.01h23.98c2.76 0 5.01-2.25 5.01-5.01v-21.36c0-2.76-2.25-5.01-5.01-5.01zm0 2.61c.37 0 .71.09 1.02.24l-12.5 10.83c-.26.23-.76.23-1.02 0l-12.5-10.83c.31-.15.65-.24 1.02-.24zm0 26.16h-23.98c-1.32 0-2.4-1.07-2.4-2.4v-21.25l12.16 10.54c.62.54 1.42.81 2.22.81s1.6-.27 2.22-.81l12.17-10.54v21.25c0 1.32-1.07 2.4-2.39 2.4z"/></svg>