<svg enable-background="new 0 0 36 36" viewBox="0 0 36 36" xmlns="http://www.w3.org/2000/svg"><path d="m28.44 30.16 6.56-6.56-6.47-6.47-1.6 1.59 3.8 3.8h-11.93v2.25h11.84l-3.79 3.79z"/><path d="m26.48 12.29v-2.81c0-4.68-3.8-8.48-8.48-8.48s-8.48 3.8-8.48 8.48v2.81h-8.52v17.49c0 2.88 2.34 5.22 5.22 5.22h23.56c2.88 0 5.22-2.34 5.22-5.22h-2.62c0 1.44-1.17 2.6-2.6 2.6h-3.59-2.04-17.93c-1.44 0-2.6-1.17-2.6-2.6v-14.88h20.63 2.04 6.1v2.23h2.61v-4.84zm-2.61 0h-11.74v-2.81c0-3.23 2.63-5.87 5.87-5.87s5.87 2.63 5.87 5.87z"/></svg>