<svg enable-background="new 0 0 36 36" viewBox="0 0 36 36" xmlns="http://www.w3.org/2000/svg"><path d="m30.92 14.58h-1.17v-1.83c0-6.48-5.27-11.75-11.75-11.75s-11.75 5.27-11.75 11.75v1.83h-1.17c-2.25 0-4.08 1.83-4.08 4.08v12.27c0 2.24 1.83 4.07 4.08 4.07h25.84c2.25 0 4.08-1.83 4.08-4.08v-12.26c0-2.25-1.83-4.08-4.08-4.08zm-22.05-1.83c0-5.03 4.1-9.13 9.13-9.13s9.13 4.1 9.13 9.13v1.83h-18.26zm23.51 18.17c0 .81-.66 1.46-1.46 1.46h-25.84c-.81 0-1.46-.66-1.46-1.46v-12.26c0-.81.66-1.46 1.46-1.46h25.84c.81 0 1.46.66 1.46 1.46z"/><path d="m11.06 23.43c-.09-.07-.18-.1-.27-.16-.1-.04-.21-.07-.31-.09-.54-.1-1.09.07-1.48.45-.3.31-.47.73-.47 1.16 0 .1.01.21.03.31.03.1.05.21.09.31.05.09.09.18.16.27.05.09.13.17.2.25.31.31.73.48 1.16.48s.85-.17 1.15-.48c.08-.08.14-.16.21-.25.05-.09.1-.18.14-.27.04-.1.08-.21.09-.31.03-.1.04-.21.04-.31 0-.43-.18-.85-.48-1.16-.09-.07-.17-.15-.26-.2z"/><path d="m16.29 23.43c-.09-.07-.18-.1-.27-.16-.1-.04-.21-.07-.31-.09-.52-.1-1.09.07-1.48.45-.3.31-.47.73-.47 1.16 0 .1.01.21.03.31.03.1.05.21.09.31.05.09.09.18.16.27.05.09.13.17.2.25.31.31.73.48 1.16.48s.85-.17 1.15-.48c.3-.3.48-.72.48-1.15s-.18-.85-.48-1.16c-.09-.06-.17-.14-.26-.19z"/><path d="m20.29 23.18c-.1.03-.2.05-.3.09-.1.05-.2.09-.29.16-.08.05-.17.13-.25.2-.3.31-.47.73-.47 1.16s.17.85.47 1.15c.08.08.17.14.25.21.09.05.18.1.29.14.1.04.2.08.3.1.12.01.22.03.33.03.43 0 .85-.17 1.15-.48.08-.08.14-.16.21-.25.05-.09.1-.18.14-.27.04-.1.08-.21.09-.31.03-.1.04-.21.04-.31 0-.43-.18-.85-.48-1.16-.38-.39-.94-.56-1.48-.46z"/><path d="m26.75 23.43c-.09-.07-.18-.1-.27-.16-.1-.04-.21-.07-.31-.09-.52-.1-1.09.07-1.48.45-.3.31-.47.73-.47 1.16 0 .1.01.21.03.31.03.1.05.21.09.31.05.09.09.18.16.27.05.09.13.17.2.25.31.31.73.48 1.16.48.1 0 .21-.01.31-.03.1-.03.21-.07.31-.1.09-.04.18-.09.27-.14.09-.07.17-.13.25-.21s.14-.16.21-.25c.05-.09.1-.18.14-.27.04-.1.08-.21.09-.31.03-.1.04-.21.04-.31 0-.43-.17-.85-.48-1.16-.08-.07-.16-.15-.25-.2z"/></svg>