<?xml version="1.0" encoding="utf-8"?>
<!-- Generator: Adobe Illustrator 26.0.3, SVG Export Plug-In . SVG Version: 6.00 Build 0)  -->
<svg version="1.1" id="Layer_1" xmlns="http://www.w3.org/2000/svg" xmlns:xlink="http://www.w3.org/1999/xlink" x="0px" y="0px"
	 viewBox="0 0 36 36" style="enable-background:new 0 0 36 36;" xml:space="preserve">
<g>
	<path d="M7.49,4.75c-4.47,0-6.49,3.47-5.93,6.04c1.68-0.22,8.39,0.78,8.39,6.83c0,5.81-4.59,9.95-8.95,12.86l1.01,0.78
		c7.49-3.69,13.98-10.4,13.98-17.44C15.99,8.21,12.07,4.75,7.49,4.75z"/>
	<path d="M26.39,4.75c-4.36,0-6.49,3.47-5.93,6.04c1.79-0.22,8.5,0.78,8.5,6.83c0,5.81-4.59,9.95-8.95,12.86l0.9,0.78
		C28.63,27.56,35,20.85,35,13.81C35,8.21,31.09,4.75,26.39,4.75z"/>
</g>
</svg>
