<svg enable-background="new 0 0 36 36" viewBox="0 0 36 36" xmlns="http://www.w3.org/2000/svg"><path d="m24.8 2.42c-.32-.14-.68-.15-1.01-.02s-.59.38-.73.7c-.29.67.01 1.45.68 1.74 5.23 2.29 8.61 7.45 8.61 13.16s-3.38 10.87-8.61 13.16c-.32.14-.57.4-.7.73s-.12.69.02 1.01c.21.48.69.79 1.21.79.18 0 .36-.04.53-.11 6.2-2.7 10.2-8.82 10.2-15.58s-4-12.88-10.2-15.58z"/><path d="m23.39 24.03c-.26.24-.42.56-.44.91s.1.69.33.95c.25.28.61.44.99.44.33 0 .64-.12.88-.34 2.27-2.03 3.58-4.95 3.58-8s-1.3-5.96-3.58-8c-.26-.24-.59-.35-.96-.34-.35.02-.68.17-.91.44-.49.54-.44 1.38.1 1.87 1.71 1.53 2.69 3.73 2.69 6.02s-.97 4.51-2.68 6.05z"/><path d="m18.6 4.8c-.45-.23-.98-.18-1.38.11l-7.49 5.49h-7.4c-.74.01-1.33.6-1.33 1.33v12.54c0 .73.59 1.32 1.32 1.32h7.4l7.49 5.49c.23.17.5.26.78.26.21 0 .41-.05.6-.14.45-.23.73-.68.73-1.18v-24.04c0-.5-.28-.95-.72-1.18zm-1.92 3.79v18.82l-5.73-4.2c-.23-.17-.5-.26-.78-.26h-6.52v-9.9h6.52c.28 0 .55-.09.78-.26z"/></svg>