<svg enable-background="new 0 0 36 36" viewBox="0 0 36 36" xmlns="http://www.w3.org/2000/svg"><path d="m18 35c-9.37 0-17-7.63-17-17s7.63-17 17-17 17 7.63 17 17-7.63 17-17 17zm0-31.24c-7.85 0-14.24 6.39-14.24 14.24s6.39 14.24 14.24 14.24 14.24-6.39 14.24-14.24-6.39-14.24-14.24-14.24zm-2.39 20.63c-.27 0-.55-.07-.79-.2-.53-.29-.86-.84-.86-1.44v-9.49c0-.6.33-1.16.86-1.44.53-.29 1.17-.27 1.68.06l7.37 4.74c.47.3.75.82.75 1.38s-.28 1.08-.75 1.38l-7.38 4.74c-.25.18-.56.27-.88.27zm-1.26-11.64c0 .01.01.01 0 0z"/></svg>