<?xml version="1.0" encoding="utf-8"?>
<!-- Generator: Adobe Illustrator 26.0.3, SVG Export Plug-In . SVG Version: 6.00 Build 0)  -->
<svg version="1.1" id="Layer_1" xmlns="http://www.w3.org/2000/svg" xmlns:xlink="http://www.w3.org/1999/xlink" x="0px" y="0px"
	 viewBox="0 0 36 36" style="enable-background:new 0 0 36 36;" xml:space="preserve">
<style type="text/css">
	.st0{fill:#231F20;}
</style>
<path class="st0" d="M29.5,7.3h-2.9V4.8c0-2.1-1.7-3.8-3.8-3.8H5.6C3.5,1,1.8,2.7,1.8,4.8v20.1c0,2.1,1.7,3.8,3.8,3.8h3.8v1.6
	c0,2.6,2.1,4.7,4.7,4.7h15.4c2.6,0,4.7-2.1,4.7-4.7V12C34.2,9.4,32.1,7.3,29.5,7.3z M4.6,24.9V4.8c0-0.6,0.5-1,1-1h17.2
	c0.6,0,1,0.5,1,1v20.1c0,0.6-0.5,1-1,1H5.6C5,25.9,4.6,25.5,4.6,24.9z M31.4,30.3c0,1.1-0.9,1.9-1.9,1.9H14.1
	c-1.1,0-1.9-0.9-1.9-1.9v-1.6h10.7c2.1,0,3.8-1.7,3.8-3.8V10.1h2.9c1.1,0,1.9,0.9,1.9,1.9V30.3z"/>
</svg>
