<svg enable-background="new 0 0 36 36" viewBox="0 0 36 36" xmlns="http://www.w3.org/2000/svg"><path d="m13.9 5.74c-.61-1.6-2.15-2.75-3.96-2.75s-3.36 1.15-3.96 2.75h-4.98v3h4.98c.61 1.6 2.15 2.75 3.96 2.75s3.35-1.15 3.96-2.75h21.1v-3z"/><path d="m26.06 13.75c-1.81 0-3.35 1.15-3.96 2.75h-21.1v3h21.1c.61 1.6 2.15 2.75 3.96 2.75s3.35-1.15 3.96-2.75h4.98v-3h-4.98c-.61-1.6-2.14-2.75-3.96-2.75z"/><path d="m18 24.51c-1.81 0-3.35 1.15-3.96 2.75h-13.04v3h13.04c.61 1.6 2.15 2.75 3.96 2.75s3.35-1.15 3.96-2.75h13.04v-3h-13.04c-.61-1.6-2.15-2.75-3.96-2.75z"/></svg>