<?xml version="1.0" encoding="utf-8"?>
<!-- Generator: Adobe Illustrator 26.0.3, SVG Export Plug-In . SVG Version: 6.00 Build 0)  -->
<svg version="1.1" id="Layer_1" xmlns="http://www.w3.org/2000/svg" xmlns:xlink="http://www.w3.org/1999/xlink" x="0px" y="0px"
	 viewBox="0 0 36 36" style="enable-background:new 0 0 36 36;" xml:space="preserve">
<g>
	<path d="M1,22.19C1,15.15,7.37,8.44,15.09,4.75l0.9,0.78c-4.36,2.91-8.95,7.04-8.95,12.86c0,6.04,6.71,7.05,8.5,6.83
		c0.56,2.57-1.57,6.04-5.93,6.04C4.91,31.25,1,27.79,1,22.19z M20.01,22.19c0-7.04,6.49-13.76,13.98-17.44L35,5.53
		c-4.36,2.91-8.95,7.04-8.95,12.86c0,6.04,6.71,7.05,8.39,6.83c0.56,2.57-1.46,6.04-5.93,6.04C23.93,31.25,20.01,27.79,20.01,22.19z
		"/>
</g>
</svg>
